<?xml version="1.0" encoding="UTF-8" standalone="no"?>
<!-- Created with Inkscape (http://www.inkscape.org/) -->

<svg
   width="225.35645"
   height="202.12666"
   viewBox="0 0 225.35645 202.12666"
   version="1.1"
   id="svg5"
   xml:space="preserve"
   xmlns:inkscape="http://www.inkscape.org/namespaces/inkscape"
   xmlns:sodipodi="http://sodipodi.sourceforge.net/DTD/sodipodi-0.dtd"
   xmlns="http://www.w3.org/2000/svg"
   xmlns:svg="http://www.w3.org/2000/svg"><sodipodi:namedview
     id="namedview7"
     pagecolor="#505050"
     bordercolor="#eeeeee"
     borderopacity="1"
     inkscape:showpageshadow="0"
     inkscape:pageopacity="0"
     inkscape:pagecheckerboard="0"
     inkscape:deskcolor="#505050"
     inkscape:document-units="px"
     showgrid="false" /><defs
     id="defs2"><clipPath
       clipPathUnits="userSpaceOnUse"
       id="clipPath2512"><path
         d="m 188.734,421.215 c -13.748,-6.352 -23.519,-21.089 -23.237,-35.04 v 0 c 0.161,-7.814 3.593,-15.054 9.42,-19.863 v 0 c 5.732,-4.733 13.019,-6.631 20.527,-5.339 v 0 c 16.102,2.766 26.154,15.923 32.705,28.259 v 0 c 0.498,-8.877 0.714,-17.786 0.646,-26.675 v 0 c -10.525,-5.441 -21.427,-13.235 -32.667,-23.37 v 0 c -7.682,-6.927 -14.372,-14.866 -19.345,-22.958 v 0 c -8.129,-13.232 -9.872,-24.379 -5.176,-33.133 v 0 c 3.624,-6.758 10.353,-10.551 17.656,-10.551 v 0 c 2.918,0 5.927,0.605 8.867,1.869 v 0 c 11.967,5.146 20.663,17.322 24.78,24.121 v 0 c 8.235,13.598 13.01,30.39 13.807,48.563 v 0 c 0.15,3.403 0.258,6.812 0.324,10.226 v 0 c 6.853,3.102 13.478,5.063 19.864,5.88 v 0 c -2.252,-3.714 -4.134,-7.555 -5.625,-11.495 v 0 c -5.651,-14.941 -3.81,-28.992 4.927,-37.587 v 0 c 6.963,-6.849 16.13,-9.163 25.151,-6.351 v 0 c 10.427,3.251 18.859,12.889 20.983,23.983 v 0 c 3.186,16.635 -6.323,32.854 -22.117,37.726 v 0 c -2.243,0.693 -4.511,1.24 -6.807,1.643 v 0 c 4.858,5.124 9.998,9.198 14.463,12.263 v 0 c 10.496,7.202 22.227,12.36 32.719,16.231 v 0 l -5.412,-9.64 c -1.124,-2.002 -0.412,-4.537 1.59,-5.661 v 0 c 0.645,-0.362 1.343,-0.533 2.033,-0.533 v 0 c 1.454,0 2.866,0.764 3.629,2.123 v 0 l 11.537,20.555 c 0.607,1.081 0.7,2.377 0.253,3.533 v 0 c -0.447,1.157 -1.387,2.053 -2.562,2.446 v 0 l -20.519,6.849 c -2.174,0.728 -4.533,-0.448 -5.261,-2.627 v 0 c -0.726,-2.178 0.45,-4.533 2.629,-5.26 v 0 l 10.511,-3.509 c -11.315,-4.103 -24.207,-9.659 -35.853,-17.651 v 0 c -7.881,-5.408 -14.628,-11.565 -20.078,-18.274 v 0 c -8.349,-0.076 -17.019,-1.934 -25.972,-5.565 v 0 c -0.022,13.21 -0.654,26.449 -1.895,39.546 v 0 c -0.179,1.899 -1.627,3.43 -3.511,3.718 v 0 c -1.891,0.29 -3.725,-0.743 -4.462,-2.501 v 0 c -7.586,-18.074 -16.86,-35.188 -33.22,-37.998 v 0 c -5.085,-0.872 -9.99,0.391 -13.825,3.556 v 0 c -3.957,3.267 -6.289,8.231 -6.399,13.619 v 0 c -0.216,10.627 7.698,22.374 18.411,27.323 v 0 c 7.346,3.395 18.317,3.207 24.18,-3.825 v 0 c 1.471,-1.764 4.093,-2.001 5.856,-0.531 v 0 c 1.764,1.471 2.002,4.092 0.531,5.856 v 0 c -5.272,6.324 -12.958,8.974 -20.513,8.974 v 0 c -4.781,0 -9.509,-1.061 -13.543,-2.925 M 262.039,320.05 c -4.877,4.799 -8.221,14.863 -2.979,28.717 v 0 c 2.07,5.478 4.865,10.392 8.026,14.755 v 0 c 3.651,-0.254 7.215,-0.917 10.687,-1.988 v 0 c 11.737,-3.621 18.787,-15.751 16.401,-28.216 v 0 c -1.562,-8.168 -7.709,-15.244 -15.291,-17.608 v 0 c -1.698,-0.529 -3.39,-0.791 -5.048,-0.791 v 0 c -4.284,-10e-4 -8.354,1.745 -11.796,5.131 m -83.104,-33.024 c -3.196,5.959 -1.536,14.32 4.932,24.849 v 0 c 4.563,7.425 10.729,14.733 17.83,21.136 v 0 c 9.29,8.377 18.271,15.043 26.917,19.989 v 0 c -0.055,-1.847 -0.125,-3.694 -0.206,-5.537 v 0 c -0.736,-16.784 -5.096,-32.213 -12.61,-44.619 v 0 c -3.602,-5.949 -11.116,-16.559 -20.953,-20.79 v 0 c -1.878,-0.807 -3.774,-1.195 -5.591,-1.195 v 0 c -4.315,-10e-4 -8.186,2.19 -10.319,6.167"
         id="path2510" /></clipPath></defs><g
     id="g2506"
     transform="matrix(1.3333333,0,0,-1.3333333,-220.65472,565.51999)"><g
       id="g2508"
       clip-path="url(#clipPath2512)"><g
         id="g2514"><g
           id="g2516"><path
             d="m 188.734,421.215 c -13.748,-6.352 -23.519,-21.089 -23.237,-35.04 v 0 c 0.161,-7.814 3.593,-15.054 9.42,-19.863 v 0 c 5.732,-4.733 13.019,-6.631 20.527,-5.339 v 0 c 16.102,2.766 26.154,15.923 32.705,28.259 v 0 c 0.498,-8.877 0.714,-17.786 0.646,-26.675 v 0 c -10.525,-5.441 -21.427,-13.235 -32.667,-23.37 v 0 c -7.682,-6.927 -14.372,-14.866 -19.345,-22.958 v 0 c -8.129,-13.232 -9.872,-24.379 -5.176,-33.133 v 0 c 3.624,-6.758 10.353,-10.551 17.656,-10.551 v 0 c 2.918,0 5.927,0.605 8.867,1.869 v 0 c 11.967,5.146 20.663,17.322 24.78,24.121 v 0 c 8.235,13.598 13.01,30.39 13.807,48.563 v 0 c 0.15,3.403 0.258,6.812 0.324,10.226 v 0 c 6.853,3.102 13.478,5.063 19.864,5.88 v 0 c -2.252,-3.714 -4.134,-7.555 -5.625,-11.495 v 0 c -5.651,-14.941 -3.81,-28.992 4.927,-37.587 v 0 c 6.963,-6.849 16.13,-9.163 25.151,-6.351 v 0 c 10.427,3.251 18.859,12.889 20.983,23.983 v 0 c 3.186,16.635 -6.323,32.854 -22.117,37.726 v 0 c -2.243,0.693 -4.511,1.24 -6.807,1.643 v 0 c 4.858,5.124 9.998,9.198 14.463,12.263 v 0 c 10.496,7.202 22.227,12.36 32.719,16.231 v 0 l -5.412,-9.64 c -1.124,-2.002 -0.412,-4.537 1.59,-5.661 v 0 c 0.645,-0.362 1.343,-0.533 2.033,-0.533 v 0 c 1.454,0 2.866,0.764 3.629,2.123 v 0 l 11.537,20.555 c 0.607,1.081 0.7,2.377 0.253,3.533 v 0 c -0.447,1.157 -1.387,2.053 -2.562,2.446 v 0 l -20.519,6.849 c -2.174,0.728 -4.533,-0.448 -5.261,-2.627 v 0 c -0.726,-2.178 0.45,-4.533 2.629,-5.26 v 0 l 10.511,-3.509 c -11.315,-4.103 -24.207,-9.659 -35.853,-17.651 v 0 c -7.881,-5.408 -14.628,-11.565 -20.078,-18.274 v 0 c -8.349,-0.076 -17.019,-1.934 -25.972,-5.565 v 0 c -0.022,13.21 -0.654,26.449 -1.895,39.546 v 0 c -0.179,1.899 -1.627,3.43 -3.511,3.718 v 0 c -1.891,0.29 -3.725,-0.743 -4.462,-2.501 v 0 c -7.586,-18.074 -16.86,-35.188 -33.22,-37.998 v 0 c -5.085,-0.872 -9.99,0.391 -13.825,3.556 v 0 c -3.957,3.267 -6.289,8.231 -6.399,13.619 v 0 c -0.216,10.627 7.698,22.374 18.411,27.323 v 0 c 7.346,3.395 18.317,3.207 24.18,-3.825 v 0 c 1.471,-1.764 4.093,-2.001 5.856,-0.531 v 0 c 1.764,1.471 2.002,4.092 0.531,5.856 v 0 c -5.272,6.324 -12.958,8.974 -20.513,8.974 v 0 c -4.781,0 -9.509,-1.061 -13.543,-2.925 M 262.039,320.05 c -4.877,4.799 -8.221,14.863 -2.979,28.717 v 0 c 2.07,5.478 4.865,10.392 8.026,14.755 v 0 c 3.651,-0.254 7.215,-0.917 10.687,-1.988 v 0 c 11.737,-3.621 18.787,-15.751 16.401,-28.216 v 0 c -1.562,-8.168 -7.709,-15.244 -15.291,-17.608 v 0 c -1.698,-0.529 -3.39,-0.791 -5.048,-0.791 v 0 c -4.284,-10e-4 -8.354,1.745 -11.796,5.131 m -83.104,-33.024 c -3.196,5.959 -1.536,14.32 4.932,24.849 v 0 c 4.563,7.425 10.729,14.733 17.83,21.136 v 0 c 9.29,8.377 18.271,15.043 26.917,19.989 v 0 c -0.055,-1.847 -0.125,-3.694 -0.206,-5.537 v 0 c -0.736,-16.784 -5.096,-32.213 -12.61,-44.619 v 0 c -3.602,-5.949 -11.116,-16.559 -20.953,-20.79 v 0 c -1.878,-0.807 -3.774,-1.195 -5.591,-1.195 v 0 c -4.315,-10e-4 -8.186,2.19 -10.319,6.167"
             style="fill:#e3fc02;fill-opacity:1;stroke:none"
             id="path2528" /></g></g></g></g></svg>
