<svg width="24" height="24" viewBox="0 0 24 24" fill="none" xmlns="http://www.w3.org/2000/svg">
<g clip-path="url(#clip0_10_60)">
<path d="M6.343 21.9L10.586 17.658M2.101 17.658L6.343 13.415M17.657 10.587L21.899 6.344M13.414 6.344L17.657 2.102M2.101 6.344L6.343 10.587M6.343 2.102L10.586 6.344M13.414 17.658L17.657 21.9M17.657 13.415L21.899 17.658M4.222 19.778C8.518 24.074 15.482 24.074 19.778 19.778C24.074 15.482 24.074 8.518 19.778 4.222C15.482 -0.0739999 8.518 -0.0739999 4.222 4.222C-0.0739999 8.518 -0.0739999 15.482 4.222 19.778ZM7.757 16.244C8.88231 17.3693 10.4086 18.0015 12 18.0015C13.5914 18.0015 15.1177 17.3693 16.243 16.244C17.3683 15.1187 18.0005 13.5924 18.0005 12.001C18.0005 10.4096 17.3683 8.88331 16.243 7.758C15.1177 6.63269 13.5914 6.00049 12 6.00049C10.4086 6.00049 8.88231 6.63269 7.757 7.758C6.63169 8.88331 5.99949 10.4096 5.99949 12.001C5.99949 13.5924 6.63169 15.1187 7.757 16.244Z" stroke="#F4F4F4" stroke-width="2"/>
</g>
<defs>
<clipPath id="clip0_10_60">
<rect width="24" height="24" fill="white"/>
</clipPath>
</defs>
</svg>
